<svg width="16" height="16" viewBox="0 0 16 16" fill="none" xmlns="http://www.w3.org/2000/svg">
<path d="M15.4698 7.83C14.8817 6.30882 13.8608 4.99331 12.5332 4.04604C11.2056 3.09878 9.62953 2.56129 7.99979 2.5C6.37005 2.56129 4.79398 3.09878 3.46639 4.04604C2.1388 4.99331 1.11787 6.30882 0.529787 7.83C0.490071 7.93985 0.490071 8.06015 0.529787 8.17C1.11787 9.69118 2.1388 11.0067 3.46639 11.954C4.79398 12.9012 6.37005 13.4387 7.99979 13.5C9.62953 13.4387 11.2056 12.9012 12.5332 11.954C13.8608 11.0067 14.8817 9.69118 15.4698 8.17C15.5095 8.06015 15.5095 7.93985 15.4698 7.83ZM7.99979 12.5C5.34979 12.5 2.54979 10.535 1.53479 8C2.54979 5.465 5.34979 3.5 7.99979 3.5C10.6498 3.5 13.4498 5.465 14.4648 8C13.4498 10.535 10.6498 12.5 7.99979 12.5Z" fill="#1DA1F2"/>
<path d="M14.6087 7.84545C14.0741 6.46257 13.1459 5.26664 11.939 4.40549C10.7321 3.54434 9.29936 3.05571 7.81778 3C6.33619 3.05571 4.90341 3.54434 3.6965 4.40549C2.4896 5.26664 1.56149 6.46257 1.02687 7.84545C0.990761 7.94532 0.990761 8.05468 1.02687 8.15455C1.56149 9.53743 2.4896 10.7334 3.6965 11.5945C4.90341 12.4557 6.33619 12.9443 7.81778 13C9.29936 12.9443 10.7321 12.4557 11.939 11.5945C13.1459 10.7334 14.0741 9.53743 14.6087 8.15455C14.6448 8.05468 14.6448 7.94532 14.6087 7.84545ZM7.81778 12.0909C5.40868 12.0909 2.86323 10.3045 1.9405 8C2.86323 5.69545 5.40868 3.90909 7.81778 3.90909C10.2269 3.90909 12.7723 5.69545 13.695 8C12.7723 10.3045 10.2269 12.0909 7.81778 12.0909Z" fill="#1DA1F2"/>
<path d="M7.99979 5C7.40644 5 6.82642 5.17595 6.33308 5.50559C5.83973 5.83524 5.45521 6.30377 5.22815 6.85195C5.00109 7.40013 4.94168 8.00333 5.05743 8.58527C5.17319 9.16721 5.45891 9.70176 5.87847 10.1213C6.29802 10.5409 6.83257 10.8266 7.41452 10.9424C7.99646 11.0581 8.59966 10.9987 9.14784 10.7716C9.69602 10.5446 10.1646 10.1601 10.4942 9.66671C10.8238 9.17336 10.9998 8.59334 10.9998 8C10.9998 7.20435 10.6837 6.44129 10.1211 5.87868C9.5585 5.31607 8.79544 5 7.99979 5ZM7.99979 10C7.60422 10 7.21755 9.8827 6.88865 9.66294C6.55975 9.44318 6.3034 9.13082 6.15203 8.76537C6.00065 8.39991 5.96105 7.99778 6.03822 7.60982C6.11539 7.22186 6.30587 6.86549 6.58557 6.58579C6.86528 6.30608 7.22164 6.1156 7.60961 6.03843C7.99757 5.96126 8.3997 6.00087 8.76515 6.15224C9.13061 6.30362 9.44296 6.55996 9.66273 6.88886C9.88249 7.21776 9.99979 7.60444 9.99979 8C9.99979 8.53043 9.78907 9.03914 9.414 9.41421C9.03893 9.78929 8.53022 10 7.99979 10Z" fill="#1DA1F2"/>
<path d="M7.99979 5.5C7.50533 5.5 7.02199 5.64662 6.61086 5.92133C6.19974 6.19603 5.87931 6.58648 5.69009 7.04329C5.50087 7.50011 5.45136 8.00277 5.54783 8.48773C5.64429 8.97268 5.88239 9.41814 6.23202 9.76777C6.58165 10.1174 7.02711 10.3555 7.51206 10.452C7.99701 10.5484 8.49968 10.4989 8.9565 10.3097C9.41331 10.1205 9.80376 9.80005 10.0785 9.38892C10.3532 8.9778 10.4998 8.49445 10.4998 8C10.4998 7.33696 10.2364 6.70107 9.76755 6.23223C9.29871 5.76339 8.66283 5.5 7.99979 5.5ZM7.99979 9.66667C7.67015 9.66667 7.34792 9.56892 7.07384 9.38578C6.79976 9.20265 6.58613 8.94235 6.45999 8.6378C6.33384 8.33326 6.30084 7.99815 6.36515 7.67485C6.42945 7.35155 6.58819 7.05458 6.82128 6.82149C7.05436 6.5884 7.35134 6.42967 7.67464 6.36536C7.99794 6.30105 8.33305 6.33405 8.63759 6.4602C8.94214 6.58635 9.20243 6.79997 9.38557 7.07405C9.56871 7.34813 9.66645 7.67036 9.66645 8C9.66645 8.44203 9.49086 8.86595 9.1783 9.17851C8.86574 9.49107 8.44182 9.66667 7.99979 9.66667Z" fill="#1DA1F2"/>
</svg>
