<svg width="16" height="16" viewBox="0 0 16 16" fill="none" xmlns="http://www.w3.org/2000/svg">
<path d="M10 5.66667L9.34267 5.55733C9.3268 5.6528 9.3319 5.75057 9.35762 5.84386C9.38334 5.93715 9.42907 6.02373 9.49161 6.09757C9.55416 6.17141 9.63204 6.23075 9.71983 6.27146C9.80762 6.31218 9.90323 6.33329 10 6.33333V5.66667ZM2.66667 5.66667V5C2.48986 5 2.32029 5.07024 2.19526 5.19526C2.07024 5.32029 2 5.48986 2 5.66667H2.66667ZM4 13H11.5733V11.6667H4V13ZM12.3733 5H10V6.33333H12.3733V5ZM10.658 5.776L11.1947 2.55267L9.88 2.33333L9.34267 5.55733L10.658 5.776ZM9.88 1H9.73733V2.33333H9.88V1ZM7.518 2.18733L5.84133 4.70333L6.95067 5.44333L8.628 2.92733L7.518 2.18733ZM5.28667 5H2.66667V6.33333H5.28667V5ZM2 5.66667V11H3.33333V5.66667H2ZM13.5347 11.392L14.3347 7.392L13.028 7.13067L12.228 11.1307L13.5347 11.392ZM5.84133 4.70333C5.78043 4.79461 5.69795 4.86945 5.60119 4.9212C5.50443 4.97295 5.39639 5.00002 5.28667 5V6.33333C5.61591 6.33331 5.94006 6.252 6.23034 6.09663C6.52061 5.94126 6.76805 5.71662 6.95067 5.44267L5.84133 4.70267V4.70333ZM11.1947 2.55267C11.2265 2.36169 11.2164 2.16607 11.165 1.97941C11.1136 1.79274 11.0222 1.6195 10.8971 1.47174C10.772 1.32398 10.6162 1.20524 10.4405 1.12378C10.2649 1.04231 10.0736 1.00007 9.88 1V2.33333L11.1947 2.55267ZM12.3733 6.33333C12.472 6.33329 12.5694 6.35515 12.6586 6.39732C12.7478 6.43949 12.8265 6.50093 12.889 6.57721C12.9516 6.65348 12.9965 6.74269 13.0204 6.8384C13.0443 6.93411 13.0473 7.03393 13.028 7.13067L14.3347 7.392C14.3927 7.1019 14.3856 6.80255 14.3139 6.51552C14.2422 6.22849 14.1078 5.96094 13.9202 5.73214C13.7327 5.50334 13.4967 5.319 13.2294 5.19239C12.962 5.06579 12.6698 5.00008 12.374 5V6.33333H12.3733ZM11.5733 13C12.0357 13 12.4839 12.8398 12.8415 12.5466C13.1991 12.2535 13.444 11.8454 13.5347 11.392L12.228 11.1307C12.1978 11.282 12.116 11.4181 11.9966 11.5158C11.8772 11.6136 11.7276 11.6669 11.5733 11.6667V13ZM9.73733 1C9.29825 0.999898 8.86593 1.10822 8.47877 1.31535C8.09161 1.52248 7.76158 1.82201 7.518 2.18733L8.628 2.92733C8.74972 2.74465 8.91466 2.59486 9.10819 2.49123C9.30171 2.38761 9.51782 2.33337 9.73733 2.33333V1ZM4 11.6667C3.82319 11.6667 3.65362 11.5964 3.5286 11.4714C3.40357 11.3464 3.33333 11.1768 3.33333 11H2C2 11.5304 2.21071 12.0391 2.58579 12.4142C2.96086 12.7893 3.46957 13 4 13V11.6667Z" fill="#1DA1F2"/>
<path d="M5.3335 5.66675V12.3334" stroke="#1DA1F2"/>
</svg>
