<svg width="16" height="16" viewBox="0 0 16 16" fill="none" xmlns="http://www.w3.org/2000/svg">
<path d="M8 12.5C8.9889 12.5 9.9556 12.2068 10.7778 11.6573C11.6001 11.1079 12.241 10.327 12.6194 9.41342C12.9978 8.49979 13.0969 7.49446 12.9039 6.52455C12.711 5.55465 12.2348 4.66373 11.5355 3.96447C10.8363 3.26521 9.94535 2.789 8.97545 2.59608C8.00555 2.40315 7.00021 2.50217 6.08658 2.8806C5.17295 3.25904 4.39206 3.89991 3.84265 4.72215C3.29324 5.5444 3 6.51109 3 7.5C3 8.32667 3.2 9.10611 3.55556 9.79278L3 12.5L5.70722 11.9444C6.39389 12.3 7.17389 12.5 8 12.5Z" stroke="#1DA1F2" stroke-width="1.5" stroke-linecap="round" stroke-linejoin="round"/>
</svg>
