<svg width="600" height="600" viewBox="0 0 600 600" fill="none" xmlns="http://www.w3.org/2000/svg">
<g clip-path="url(#clip0_53475_5958)">
<rect y="-10" width="600" height="600" fill="#323232"/>
<circle cx="300" cy="276" r="220" fill="white"/>
<path fill-rule="evenodd" clip-rule="evenodd" d="M20 276C20 121.36 145.36 -4 300 -4C454.638 -4 580 121.36 580 276C580 430.638 454.638 556 300 556C145.36 556 20 430.638 20 276ZM299.997 108C238.142 108 187.997 158.144 187.997 220C187.997 281.855 238.142 332 299.997 332C361.852 332 411.997 281.855 411.997 220C411.997 158.144 361.852 108 299.997 108ZM443.122 387.927C464.34 401.591 463.304 431.375 443.982 447.606C405.048 480.305 354.827 500 300.003 500C245.543 500 195.62 480.565 156.796 448.25C137.301 432.024 136.268 402.09 157.578 388.336C164.212 384.055 171.437 380.303 179.278 377.072C210.824 364.066 251.118 360 300 360C349.129 360 389.65 363.805 421.279 376.671C429.181 379.886 436.455 383.635 443.122 387.927Z" fill="#323232"/>
</g>
<defs>
<clipPath id="clip0_53475_5958">
<rect width="600" height="600" fill="white"/>
</clipPath>
</defs>
</svg>
